<svg width="12" height="20" viewBox="0 0 12 20" fill="none" xmlns="http://www.w3.org/2000/svg">
<path d="M6.08889 8.77778C3.56667 8.12222 2.75556 7.44444 2.75556 6.38889C2.75556 5.17778 3.87778 4.33333 5.75556 4.33333C7.73333 4.33333 8.46667 5.27778 8.53333 6.66667H10.9889C10.9111 4.75556 9.74444 3 7.42222 2.43333V0H4.08889V2.4C1.93333 2.86667 0.2 4.26667 0.2 6.41111C0.2 8.97778 2.32222 10.2556 5.42222 11C8.2 11.6667 8.75556 12.6444 8.75556 13.6778C8.75556 14.4444 8.21111 15.6667 5.75556 15.6667C3.46667 15.6667 2.56667 14.6444 2.44444 13.3333H0C0.133333 15.7667 1.95556 17.1333 4.08889 17.5889V20H7.42222V17.6111C9.58889 17.2 11.3111 15.9444 11.3111 13.6667C11.3111 10.5111 8.61111 9.43333 6.08889 8.77778Z" fill="#29103A"/>
</svg>
