<svg width="27" height="20" viewBox="0 0 27 20" fill="none" xmlns="http://www.w3.org/2000/svg">
<path d="M24.7955 17.5V4H26.75V17.5C26.75 18.7413 25.7531 19.75 24.5455 19.75H3.93182V17.75H24.5455H24.7955V17.5ZM21.8409 2.5V12.5C21.8409 13.7413 20.844 14.75 19.6364 14.75H2.45455C1.24692 14.75 0.25 13.7413 0.25 12.5V2.5C0.25 1.25873 1.24692 0.25 2.45455 0.25H19.6364C20.844 0.25 21.8409 1.25873 21.8409 2.5ZM7.11364 7.5C7.11364 9.70873 8.86581 11.5 11.0455 11.5C13.2251 11.5 14.9773 9.70873 14.9773 7.5C14.9773 5.29127 13.2251 3.5 11.0455 3.5C8.86581 3.5 7.11364 5.29127 7.11364 7.5Z" fill="#4CD71C" stroke="black" stroke-width="0.5"/>
</svg>
