<svg width="28" height="30" viewBox="0 0 28 30" fill="none" xmlns="http://www.w3.org/2000/svg">
<path d="M27.3009 6.9345C26.8994 6.6182 25.8227 6.36435 25.0168 6.17528L23.9261 6.02939V3.39284L24.4846 3.38409C25.0081 3.64961 25.762 4.08495 25.8011 4.66851H27.9043C27.8652 3.50139 26.9788 2.76493 26.1898 2.1802C25.6663 1.79213 25.0933 1.58496 23.9261 1.45949V0H22.759V1.41456C21.5919 1.5266 21.2149 1.81722 20.6879 2.29166C19.9988 2.91199 19.6918 3.69046 19.6918 4.62767C19.6918 5.65474 19.9853 6.40929 20.6909 6.89248C21.0853 7.16617 21.5919 7.4206 22.759 7.65636V10.5129C22.1754 10.4096 22.1743 10.4359 21.9683 10.1914C21.7699 9.95444 21.7156 9.33703 21.6479 9.33703H19.5611C19.5611 10.5042 19.8768 11.0632 20.6669 11.6859C21.2365 12.1346 21.5919 12.214 22.759 12.3319V13.422H23.9261V12.3506C25.0933 12.2379 26.0847 11.9409 26.6549 11.4542C27.3948 10.8222 28 10.028 28 9.07209C27.9994 8.13955 27.9247 7.42761 27.3009 6.9345ZM22.1859 5.30868C21.8463 5.12369 21.7156 4.84358 21.7156 4.46952C21.7156 4.06219 21.8282 3.74357 22.1725 3.51598C22.354 3.39634 22.1754 3.30939 22.759 3.25162V5.55086C22.1754 5.46216 22.3143 5.38163 22.1859 5.30868ZM24.7204 10.4557C24.6223 10.4896 23.9261 10.5164 23.9261 10.5403V8.10863C25.0933 8.209 25.0034 8.31696 25.1971 8.43426C25.5012 8.62333 25.6541 8.89294 25.6541 9.23782C25.6541 9.83072 25.3419 10.2375 24.7204 10.4557ZM21.8953 17.5069H21.5726L17.9872 11.0148C17.8326 10.7341 17.4427 10.5042 17.1218 10.5042H6.24356C5.92259 10.5042 5.53277 10.7341 5.37813 11.0148L1.79271 17.5069H1.47058C0.828078 17.5069 0 18.0321 0 18.6741V24.5097C0 25.1516 0.828078 25.6768 1.47058 25.6768H2.33426V27.4275C2.33426 28.3904 3.42552 29.1782 4.3884 29.1782H4.97197C5.93485 29.1782 6.41921 28.3904 6.41921 27.4275V25.6768H16.3398V27.4275C16.3398 28.3904 17.4305 29.1782 18.3939 29.1782H18.9775C19.9404 29.1782 20.4248 28.3904 20.4248 27.4275V25.6768H21.8953C22.5373 25.6768 22.759 25.1516 22.759 24.5097V18.6741C22.759 18.0321 22.5367 17.5069 21.8953 17.5069ZM3.51306 22.1754C3.12613 22.1754 2.75505 22.0217 2.48145 21.7481C2.20785 21.4745 2.05415 21.1035 2.05415 20.7165C2.05415 20.3296 2.20785 19.9585 2.48145 19.6849C2.75505 19.4113 3.12613 19.2576 3.51306 19.2576C3.89998 19.2576 4.27106 19.4113 4.54466 19.6849C4.81826 19.9585 4.97197 20.3296 4.97197 20.7165C4.97197 21.1035 4.81826 21.4745 4.54466 21.7481C4.27106 22.0217 3.89998 22.1754 3.51306 22.1754ZM4.68019 17.5069L7.04537 12.7771C7.18835 12.4894 7.56883 12.2549 7.88979 12.2549H15.4761C15.7971 12.2549 16.177 12.4894 16.3205 12.7771L18.6857 17.5069H4.68019ZM19.8529 22.1754C19.4659 22.1754 19.0949 22.0217 18.8213 21.7481C18.5477 21.4745 18.3939 21.1035 18.3939 20.7165C18.3939 20.3296 18.5477 19.9585 18.8213 19.6849C19.0949 19.4113 19.4659 19.2576 19.8529 19.2576C20.2398 19.2576 20.6109 19.4113 20.8845 19.6849C21.1581 19.9585 21.3118 20.3296 21.3118 20.7165C21.3118 21.1035 21.1581 21.4745 20.8845 21.7481C20.6109 22.0217 20.2398 22.1754 19.8529 22.1754Z" fill="#29103A"/>
</svg>
