<svg width="22" height="20" viewBox="0 0 22 20" fill="none" xmlns="http://www.w3.org/2000/svg">
<path d="M2.44444 7.5L4.27778 1.875H17.7222L19.5556 7.5M17.7222 13.75C17.236 13.75 16.7697 13.5525 16.4259 13.2008C16.082 12.8492 15.8889 12.3723 15.8889 11.875C15.8889 11.3777 16.082 10.9008 16.4259 10.5492C16.7697 10.1975 17.236 10 17.7222 10C18.2085 10 18.6748 10.1975 19.0186 10.5492C19.3624 10.9008 19.5556 11.3777 19.5556 11.875C19.5556 12.3723 19.3624 12.8492 19.0186 13.2008C18.6748 13.5525 18.2085 13.75 17.7222 13.75ZM4.27778 13.75C3.79155 13.75 3.32523 13.5525 2.98142 13.2008C2.6376 12.8492 2.44444 12.3723 2.44444 11.875C2.44444 11.3777 2.6376 10.9008 2.98142 10.5492C3.32523 10.1975 3.79155 10 4.27778 10C4.76401 10 5.23032 10.1975 5.57414 10.5492C5.91796 10.9008 6.11111 11.3777 6.11111 11.875C6.11111 12.3723 5.91796 12.8492 5.57414 13.2008C5.23032 13.5525 4.76401 13.75 4.27778 13.75ZM19.4578 1.25C19.2133 0.525 18.5289 0 17.7222 0H4.27778C3.47111 0 2.78667 0.525 2.54222 1.25L0 8.75V18.75C0 19.0815 0.128769 19.3995 0.357981 19.6339C0.587192 19.8683 0.898069 20 1.22222 20H2.44444C2.7686 20 3.07947 19.8683 3.30869 19.6339C3.5379 19.3995 3.66667 19.0815 3.66667 18.75V17.5H18.3333V18.75C18.3333 19.0815 18.4621 19.3995 18.6913 19.6339C18.9205 19.8683 19.2314 20 19.5556 20H20.7778C21.1019 20 21.4128 19.8683 21.642 19.6339C21.8712 19.3995 22 19.0815 22 18.75V8.75L19.4578 1.25Z" fill="#29103A"/>
</svg>
