<svg width="79" height="50" viewBox="0 0 79 50" fill="none" xmlns="http://www.w3.org/2000/svg">
<path d="M15.1939 5.10156V12.7305C15.1939 14.7461 14.5767 16.3398 13.3423 17.5117C12.1158 18.6836 10.4517 19.2695 8.35015 19.2695C6.2564 19.2695 4.59625 18.6836 3.36969 17.5117C2.14312 16.3398 1.52984 14.7461 1.52984 12.7305V4.52734C1.52984 3.49609 1.05328 2.90625 0.100155 2.75781V2.19531H6.17047V2.75781C5.20953 2.92969 4.72906 3.51953 4.72906 4.52734V12.8594C4.72906 14.2266 5.11969 15.3086 5.90094 16.1055C6.68219 16.9023 7.73687 17.3008 9.065 17.3008C10.4087 17.3008 11.4712 16.9023 12.2525 16.1055C13.0416 15.3086 13.4361 14.2266 13.4361 12.8594V5.10156C13.4361 4.40625 13.3072 3.85938 13.0494 3.46094C12.7994 3.0625 12.4478 2.82812 11.9947 2.75781V2.19531H16.6353V2.75781C15.6744 2.9375 15.1939 3.71875 15.1939 5.10156ZM20.4973 8.44141V8.00781C21.3567 7.82031 22.2122 7.58984 23.0638 7.31641C23.9153 7.03516 24.5403 6.77734 24.9388 6.54297V9.20312C26.9856 7.5625 28.5677 6.73047 29.6848 6.70703V9.73047C29.4036 9.55859 28.9622 9.47266 28.3606 9.47266C27.2747 9.47266 26.1341 9.80859 24.9388 10.4805V16.8438C24.9388 17.2422 25.0833 17.5859 25.3723 17.875C25.6614 18.1641 26.052 18.3555 26.5442 18.4492V19H20.5677V18.4492C20.9661 18.3789 21.2747 18.1992 21.4934 17.9102C21.72 17.6211 21.8333 17.2656 21.8333 16.8438V10.1172C21.8333 9.67188 21.7161 9.30078 21.4817 9.00391C21.2473 8.70703 20.9192 8.51953 20.4973 8.44141ZM37.3789 0.542969V8.125C39.418 7.19531 40.9062 6.73047 41.8438 6.73047C42.9453 6.73047 43.832 7.25 44.5039 8.28906C45.1758 9.32031 45.5117 10.6836 45.5117 12.3789C45.5117 14.582 44.9141 16.2812 43.7188 17.4766C42.5234 18.6719 40.832 19.2695 38.6445 19.2695C36.9492 19.2695 35.4922 18.8906 34.2734 18.1328V4.07031C34.2734 3.64844 34.1562 3.29297 33.9219 3.00391C33.6875 2.70703 33.3594 2.51953 32.9375 2.44141V2.00781C33.7969 1.82813 34.6523 1.59766 35.5039 1.31641C36.3633 1.02734 36.9883 0.769531 37.3789 0.542969ZM37.3789 9.22656V17.4648C37.793 17.832 38.2812 18.0156 38.8438 18.0156C39.8984 18.0156 40.7305 17.5625 41.3398 16.6562C41.957 15.7422 42.2656 14.4766 42.2656 12.8594C42.2656 11.5469 42.0586 10.4922 41.6445 9.69531C41.2305 8.89062 40.6641 8.48828 39.9453 8.48828C39.4375 8.48828 38.582 8.73438 37.3789 9.22656ZM51.2487 10.8672L50.8152 8.00781C52.0652 7.14062 53.5612 6.70703 55.3034 6.70703C56.8581 6.70703 58.073 7.02734 58.948 7.66797C59.8308 8.30859 60.2722 9.21484 60.2722 10.3867V16.5039C60.2722 16.832 60.3542 17.0938 60.5183 17.2891C60.6902 17.4844 60.9128 17.582 61.1862 17.582C61.4597 17.582 61.7214 17.5117 61.9714 17.3711L62.1472 18.332C61.5925 18.5898 61.03 18.8008 60.4597 18.9648C59.8894 19.1289 59.4284 19.2109 59.0769 19.2109C58.6081 19.2109 58.2136 19.0898 57.8933 18.8477C57.573 18.6055 57.3581 18.2656 57.2487 17.8281C56.2175 18.3359 55.362 18.707 54.6823 18.9414C54.0105 19.1758 53.3933 19.293 52.8308 19.293C51.9089 19.293 51.1706 19.0117 50.6159 18.4492C50.0612 17.8867 49.7839 17.1406 49.7839 16.2109C49.7839 15.0625 50.2331 14.1445 51.1316 13.457C52.0378 12.7695 53.2917 12.3789 54.8933 12.2852L57.1784 12.1328V9.8125C57.1784 9.24219 57.0066 8.80078 56.6628 8.48828C56.3191 8.16797 55.8347 8.00781 55.2097 8.00781C54.0378 8.00781 52.7175 8.96094 51.2487 10.8672ZM57.1784 16.8203V13.2344L55.5495 13.3398C54.7605 13.3867 54.1433 13.6133 53.698 14.0195C53.2527 14.4258 53.03 14.9805 53.03 15.6836C53.03 16.2695 53.1745 16.7305 53.4636 17.0664C53.7605 17.3945 54.1823 17.5586 54.7292 17.5586C55.3073 17.5586 56.1237 17.3125 57.1784 16.8203ZM65.5639 8.44141V8.00781C66.3998 7.82812 67.2475 7.59766 68.1069 7.31641C68.9662 7.03516 69.5991 6.78516 70.0053 6.56641V8.14844C72.185 7.24219 73.8959 6.78906 75.1381 6.78906C75.9506 6.78906 76.5756 7.02734 77.0131 7.50391C77.4584 7.97266 77.6811 8.62109 77.6811 9.44922V16.9375C77.6811 17.3281 77.7905 17.6602 78.0092 17.9336C78.2358 18.207 78.5405 18.3789 78.9233 18.4492V19H73.3569V18.4492C73.7241 18.3789 74.0209 18.2109 74.2475 17.9453C74.4741 17.6719 74.5873 17.3516 74.5873 16.9844V10.3633C74.5873 9.77734 74.4545 9.32031 74.1889 8.99219C73.9233 8.65625 73.5366 8.48828 73.0287 8.48828C72.2631 8.48828 71.2553 8.75391 70.0053 9.28516V16.9375C70.0053 17.3359 70.1147 17.6719 70.3334 17.9453C70.5522 18.2109 70.8491 18.3789 71.2241 18.4492V19H65.6577V18.4492C66.0405 18.3789 66.3412 18.2109 66.56 17.9453C66.7866 17.6797 66.8998 17.3516 66.8998 16.9609V10.0234C66.8998 9.60938 66.7827 9.26172 66.5483 8.98047C66.3139 8.69922 65.9858 8.51953 65.5639 8.44141ZM5.74016 32.1953H10.8027L15.9472 44.1953L21.1034 32.1953H25.9316V32.7578C24.9706 32.9375 24.5136 33.582 24.5605 34.6914L24.9706 46.5039C25.0175 47.6289 25.5136 48.2773 26.4589 48.4492V49H20.4355V48.4492C21.412 48.2773 21.8769 47.6289 21.83 46.5039L21.4198 34.8438L16.0409 47.7812L14.2597 47.9922L8.78703 34.8438L8.41203 45.9062C8.3886 46.6562 8.49406 47.2461 8.72844 47.6758C8.97063 48.1055 9.31828 48.3633 9.77141 48.4492V49H5.18938V48.4492C5.6425 48.3633 6.00188 48.1055 6.2675 47.6758C6.53313 47.2461 6.67766 46.6562 6.7011 45.9062L7.11125 34.6914C7.13469 33.582 6.67766 32.9375 5.74016 32.7578V32.1953ZM32.067 47.582C30.9889 46.4492 30.4498 44.9219 30.4498 43C30.4498 41.0781 30.9889 39.5547 32.067 38.4297C33.1452 37.2969 34.5983 36.7305 36.4264 36.7305C38.2623 36.7305 39.7155 37.2969 40.7858 38.4297C41.8639 39.5547 42.403 41.0781 42.403 43C42.403 44.9219 41.8639 46.4492 40.7858 47.582C39.7155 48.707 38.2623 49.2695 36.4264 49.2695C34.5983 49.2695 33.1452 48.707 32.067 47.582ZM34.4342 39.3086C33.942 40.2227 33.6959 41.4531 33.6959 43C33.6959 44.5469 33.942 45.7734 34.4342 46.6797C34.9264 47.5859 35.5905 48.0391 36.4264 48.0391C37.2623 48.0391 37.9264 47.5859 38.4186 46.6797C38.9186 45.7734 39.1686 44.5469 39.1686 43C39.1686 41.4531 38.9186 40.2227 38.4186 39.3086C37.9264 38.3945 37.2623 37.9375 36.4264 37.9375C35.5905 37.9375 34.9264 38.3945 34.4342 39.3086ZM45.4095 37.5508V37H51.5384V37.5508C51.0697 37.6445 50.7494 37.8359 50.5775 38.125C50.4056 38.4062 50.4056 38.75 50.5775 39.1562L53.2845 45.5664L55.8978 39.4258C56.0931 38.9492 56.1166 38.543 55.9681 38.207C55.8197 37.8633 55.5189 37.6445 55.0658 37.5508L55.0892 37H59.4369L59.4017 37.5508C59.0345 37.6211 58.6752 37.8281 58.3236 38.1719C57.972 38.5078 57.6869 38.9258 57.4681 39.4258L53.3548 48.9297L51.6322 49.1406L47.308 39.1562C47.1283 38.7344 46.8666 38.3789 46.5228 38.0898C46.1869 37.8008 45.8158 37.6211 45.4095 37.5508ZM62.4083 42.9062C62.4083 40.9375 62.9083 39.4141 63.9083 38.3359C64.9161 37.25 66.338 36.707 68.1739 36.707C69.8223 36.707 71.1075 37.1367 72.0294 37.9961C72.9591 38.8555 73.4239 40.0273 73.4239 41.5117C73.4239 42.0195 73.3614 42.5547 73.2364 43.1172H65.6544C65.8262 44.5 66.2872 45.5703 67.0372 46.3281C67.795 47.0859 68.7872 47.4648 70.0137 47.4648C70.545 47.4648 71.0645 47.3984 71.5723 47.2656C72.088 47.125 72.5059 46.9414 72.8262 46.7148L73.1427 47.7227C72.5411 48.2148 71.8302 48.6016 71.0098 48.8828C70.1973 49.1562 69.3302 49.293 68.4083 49.293C66.5177 49.293 65.045 48.7344 63.9903 47.6172C62.9356 46.4922 62.4083 44.9219 62.4083 42.9062ZM65.6075 41.9922H70.6466C70.6466 40.7031 70.4278 39.7031 69.9903 38.9922C69.5606 38.2734 68.9552 37.9141 68.1739 37.9141C67.3614 37.9141 66.7286 38.2734 66.2755 38.9922C65.8302 39.7031 65.6075 40.7031 65.6075 41.9922Z" fill="#FCFCFD"/>
</svg>
