<svg width="20" height="20" viewBox="0 0 20 20" fill="none" xmlns="http://www.w3.org/2000/svg">
<path d="M9.99 0C4.47 0 0 4.48 0 10C0 15.52 4.47 20 9.99 20C15.52 20 20 15.52 20 10C20 4.48 15.52 0 9.99 0ZM10 18C5.58 18 2 14.42 2 10C2 5.58 5.58 2 10 2C14.42 2 18 5.58 18 10C18 14.42 14.42 18 10 18Z" fill="#29103A"/>
<path d="M10.5 5.75C10.5 5.33579 10.1642 5 9.75 5C9.33579 5 9 5.33579 9 5.75V8.83095C9 10.1766 9.70604 11.4236 10.8599 12.116L13.6383 13.783C13.9768 13.9861 14.4159 13.878 14.6214 13.5409C14.8298 13.1992 14.7188 12.7531 14.3746 12.5489L12.1202 11.2113C11.1158 10.6154 10.5 9.53398 10.5 8.36606V5.75Z" fill="#29103A"/>
</svg>
